<?xml version="1.0" encoding="UTF-8"?>
<svg id="Camada_2" data-name="Camada 2" xmlns="http://www.w3.org/2000/svg" viewBox="0 0 59.89 8.46">
  <defs>
    <style>
      .cls-1 {
        fill: #fff;
      }

      .cls-2 {
        fill: #5b388d;
      }
    </style>
  </defs>
  <g id="Dark">
    <g id="Download_Dark" data-name="Download Dark">
      <g>
        <path class="cls-1" d="M0,7.68V.5H1.49c1.07,0,1.85,.09,2.34,.26,.7,.24,1.24,.67,1.63,1.27,.39,.6,.59,1.32,.59,2.15,0,.72-.16,1.35-.47,1.9-.31,.55-.71,.95-1.21,1.21-.5,.26-1.19,.39-2.09,.39H0Zm.69-.68h.83c.99,0,1.68-.06,2.07-.19,.54-.18,.97-.49,1.27-.95,.31-.46,.46-1.02,.46-1.68,0-.69-.17-1.28-.5-1.78-.33-.49-.8-.83-1.4-1.01-.45-.14-1.19-.21-2.22-.21H.69V7Z"/>
        <path class="cls-1" d="M10.86,.32c1.09,0,2,.36,2.73,1.09,.73,.73,1.1,1.62,1.1,2.68s-.37,1.94-1.1,2.68-1.62,1.1-2.67,1.1-1.96-.36-2.7-1.09c-.73-.73-1.1-1.61-1.1-2.65,0-.69,.17-1.33,.5-1.92s.79-1.05,1.37-1.38c.58-.33,1.2-.5,1.87-.5Zm.03,.7c-.53,0-1.04,.14-1.51,.42-.48,.28-.85,.65-1.12,1.12-.27,.47-.4,.99-.4,1.57,0,.85,.3,1.57,.89,2.16,.59,.59,1.3,.88,2.14,.88,.56,0,1.07-.14,1.55-.41,.47-.27,.84-.64,1.11-1.11,.27-.47,.4-.99,.4-1.56s-.13-1.09-.4-1.55c-.27-.46-.64-.83-1.12-1.11s-1-.42-1.54-.42Z"/>
        <path class="cls-1" d="M15.73,.5h.74l1.47,5.18L19.99,.5h.15l2.04,5.18L23.67,.5h.73l-2.06,7.18h-.13l-2.13-5.43-2.17,5.43h-.13L15.73,.5Z"/>
        <path class="cls-1" d="M25.74,7.68V.5h.16l4.78,5.51V.5h.71V7.68h-.16l-4.74-5.44V7.68h-.74Z"/>
        <path class="cls-1" d="M33.13,.5h.72V6.99h2.76v.69h-3.48V.5Z"/>
        <path class="cls-1" d="M49.38,.5l3.35,7.18h-.78l-1.13-2.36h-3.09l-1.12,2.36h-.8L49.2,.5h.18Zm-.09,1.53l-1.23,2.6h2.46l-1.22-2.6Z"/>
        <path class="cls-1" d="M53.84,7.68V.5h1.49c1.07,0,1.85,.09,2.34,.26,.7,.24,1.24,.67,1.63,1.27,.39,.6,.59,1.32,.59,2.15,0,.72-.16,1.35-.47,1.9-.31,.55-.71,.95-1.21,1.21-.5,.26-1.19,.39-2.09,.39h-2.29Zm.69-.68h.83c.99,0,1.68-.06,2.07-.19,.54-.18,.96-.49,1.27-.95s.46-1.02,.46-1.68c0-.69-.17-1.28-.5-1.78s-.8-.83-1.4-1.01c-.45-.14-1.19-.21-2.22-.21h-.51V7Z"/>
        <path class="cls-2" d="M42.46,4.25s.28-1.41-1.36-1.47-1.68,2.32-.52,3.02c0,0-.4-.5-.48-.87,0,0,1.11,1.61,2.76-.23s-.59-4.15-2.43-3.37-2.45,2.24-2.06,3.76,2.24,2.63,4.22,1.81,2.84-3.17,2.26-4.79c0,0,1.68,2.64-.78,4.88,0,0-1.46,1.43-4.1,.55,0,0,1.27,.95,3.17,.47,0,0-2.28,1.23-4.24-.48s-1.2-3.91-1.2-3.91c0,0-.63,1.34-.14,2.66,0,0-1.06-1.63-.11-3.53s3.34-2.46,4.75-2.21c0,0-1.33-.65-3.36,.26,0,0,2.2-1.75,4.39-.14s.77,3.77,.41,4.16c0,0,.73-.55,.87-1.27,0,0-.12,3.06-3.44,2.77,0,0,.23,.26,1.21,.44,0,0-1.93,.43-2.96-1.23s.58-3,.58-3c0,0-.33-.01-.98,.77,0,0,1.03-1.91,2.89-1.14,0,0,1.44,.8,.67,2.09Z"/>
      </g>
    </g>
  </g>
</svg>