<?xml version="1.0" encoding="UTF-8"?>
<svg id="Camada_2" data-name="Camada 2" xmlns="http://www.w3.org/2000/svg" viewBox="0 0 41.8 19">
  <defs>
    <style>
      .cls-1 {
        fill: #5b388d;
      }

      .cls-2 {
        fill: #2b2b2b;
      }
    </style>
  </defs>
  <g id="Dark_c贸pia_c贸pia" data-name="Dark c贸pia c贸pia">
    <g id="Estilo_2" data-name="Estilo 2">
      <g>
        <path class="cls-1" d="M2.35,8.67c-.43,0-.83-.11-1.19-.33-.36-.22-.64-.51-.85-.88s-.31-.78-.31-1.23V2.48c.01-.45,.11-.85,.32-1.21,.2-.36,.48-.66,.84-.88S1.91,.06,2.35,.06s.84,.11,1.19,.32c.35,.21,.63,.5,.84,.87s.31,.77,.31,1.22v.55s-.02,.05-.05,.05h-1.35s-.05-.02-.05-.05v-.55c0-.27-.09-.49-.26-.69s-.39-.29-.64-.29c-.29,0-.5,.1-.66,.29s-.23,.42-.23,.68v3.74c0,.29,.09,.53,.26,.72s.38,.28,.63,.28,.47-.1,.64-.31,.26-.43,.26-.69v-.56s.02-.05,.05-.05h1.36s.05,.02,.05,.05v.56c0,.45-.11,.86-.32,1.23-.21,.37-.5,.66-.85,.88s-.75,.33-1.19,.33Z"/>
        <path class="cls-1" d="M17.89,8.67c-.43,0-.82-.11-1.18-.33-.36-.22-.64-.51-.85-.88s-.32-.77-.32-1.2v-.55s.02-.06,.06-.06h1.35s.05,.02,.05,.06v.55c0,.26,.09,.49,.26,.68s.39,.28,.63,.28,.46-.1,.64-.29,.26-.42,.26-.67c0-.29-.19-.55-.57-.77-.06-.04-.14-.09-.24-.14s-.22-.12-.35-.2-.27-.15-.4-.22-.25-.14-.38-.21c-.44-.26-.76-.58-.98-.97s-.32-.83-.32-1.31c0-.45,.11-.85,.33-1.21,.22-.36,.5-.64,.86-.85s.74-.31,1.15-.31,.82,.11,1.17,.32c.36,.21,.64,.5,.85,.86s.32,.75,.32,1.2v.98s-.02,.05-.05,.05h-1.35s-.05-.02-.05-.05v-.98c-.01-.28-.1-.51-.28-.69s-.38-.26-.63-.26-.46,.09-.63,.28-.26,.41-.26,.67,.06,.48,.17,.66,.32,.34,.61,.5c.03,.02,.1,.05,.22,.12s.24,.13,.38,.21,.26,.14,.38,.21,.18,.1,.21,.11c.4,.22,.71,.5,.95,.82s.35,.72,.35,1.2-.11,.87-.32,1.23c-.21,.36-.5,.65-.86,.86s-.75,.32-1.18,.32Z"/>
        <path class="cls-1" d="M24.88,8.55h-1.36s-.05-.02-.05-.06l.02-8.24s.02-.05,.05-.05h1.46s.06,.02,.08,.05l1.1,1.58,1.09-1.58s.05-.05,.09-.05h1.47s.05,.02,.05,.05l.02,8.24s-.02,.06-.05,.06h-1.36s-.05-.02-.05-.06V2.37s-1.27,1.83-1.27,1.83l-1.25-1.83v6.12s-.03,.06-.06,.06Z"/>
        <path class="cls-1" d="M33.73,8.55h-1.36s-.06-.02-.06-.06V.25s.03-.05,.06-.05h1.35s.05,.02,.05,.05V8.49s0,.06-.04,.06Z"/>
        <path class="cls-1" d="M39.45,8.67c-.43,0-.83-.11-1.19-.33-.36-.22-.64-.51-.85-.88s-.31-.78-.31-1.23V2.48c.01-.45,.11-.85,.32-1.21,.2-.36,.48-.66,.84-.88s.75-.33,1.19-.33,.84,.11,1.19,.32c.35,.21,.63,.5,.84,.87s.31,.77,.31,1.22v.55s-.02,.05-.05,.05h-1.35s-.05-.02-.05-.05v-.55c0-.27-.09-.49-.26-.69s-.39-.29-.64-.29c-.29,0-.5,.1-.66,.29s-.23,.42-.23,.68v3.74c0,.29,.09,.53,.26,.72s.38,.28,.63,.28,.47-.1,.64-.31,.26-.43,.26-.69v-.56s.02-.05,.05-.05h1.36s.05,.02,.05,.05v.56c0,.45-.11,.86-.32,1.23-.21,.37-.5,.66-.85,.88s-.75,.33-1.19,.33Z"/>
      </g>
      <path class="cls-2" d="M11.5,4.36s.29-1.45-1.39-1.5-1.72,2.38-.53,3.1c0,0-.41-.51-.49-.89,0,0,1.14,1.65,2.82-.23s-.6-4.25-2.49-3.45-2.52,2.3-2.11,3.85,2.29,2.7,4.32,1.85,2.91-3.25,2.31-4.91c0,0,1.72,2.71-.8,5,0,0-1.49,1.46-4.2,.57,0,0,1.31,.98,3.25,.48,0,0-2.34,1.27-4.34-.49s-1.23-4-1.23-4c0,0-.64,1.37-.15,2.73,0,0-1.09-1.67-.11-3.62S9.77,.32,11.21,.57c0,0-1.36-.67-3.45,.27,0,0,2.25-1.79,4.5-.14s.79,3.87,.42,4.26c0,0,.75-.57,.89-1.31,0,0-.12,3.14-3.53,2.84,0,0,.24,.27,1.24,.45,0,0-1.98,.44-3.03-1.27s.6-3.08,.6-3.08c0,0-.34-.01-1.01,.79,0,0,1.06-1.95,2.96-1.17,0,0,1.47,.82,.68,2.14Z"/>
    </g>
    <g>
      <path class="cls-2" d="M8.92,11.61l-.67,.63c-.48-.47-1.01-.83-1.58-1.08s-1.13-.37-1.67-.37c-.68,0-1.32,.17-1.93,.5s-1.08,.78-1.42,1.35-.5,1.17-.5,1.8,.17,1.26,.52,1.85,.83,1.04,1.44,1.38,1.29,.5,2.02,.5c.89,0,1.64-.25,2.25-.75s.98-1.15,1.09-1.95h-2.75v-.83h3.71c0,1.33-.4,2.39-1.19,3.17s-1.83,1.17-3.14,1.17c-1.59,0-2.86-.54-3.79-1.63-.71-.84-1.07-1.8-1.07-2.9,0-.82,.21-1.58,.62-2.28s.97-1.25,1.69-1.65,1.52-.59,2.43-.59c.73,0,1.42,.13,2.06,.4s1.27,.69,1.89,1.27Z"/>
      <path class="cls-2" d="M14.59,10.16l4.02,8.62h-.93l-1.36-2.84h-3.71l-1.34,2.84h-.96l4.07-8.62h.21Zm-.11,1.83l-1.48,3.12h2.95l-1.47-3.12Z"/>
      <path class="cls-2" d="M19.56,18.78l1.23-8.62h.14l3.5,7.07,3.47-7.07h.14l1.24,8.62h-.84l-.85-6.16-3.05,6.16h-.22l-3.08-6.21-.85,6.21h-.83Z"/>
      <path class="cls-2" d="M30.98,10.16h4.94v.84h-4.08v2.7h4.04v.84h-4.04v3.39h4.04v.84h-4.9V10.16Z"/>
      <path class="cls-2" d="M36.52,17.18l.73-.44c.52,.95,1.11,1.42,1.79,1.42,.29,0,.56-.07,.81-.2s.45-.32,.58-.54,.2-.47,.2-.72c0-.29-.1-.57-.29-.85-.27-.38-.76-.84-1.48-1.38-.72-.54-1.17-.94-1.34-1.18-.3-.41-.46-.85-.46-1.32,0-.38,.09-.72,.27-1.03s.43-.55,.76-.73,.68-.27,1.06-.27c.41,0,.79,.1,1.14,.3s.73,.57,1.12,1.11l-.7,.53c-.32-.43-.6-.71-.83-.85s-.48-.21-.75-.21c-.35,0-.63,.11-.85,.32s-.33,.47-.33,.78c0,.19,.04,.37,.12,.54s.22,.37,.43,.57c.11,.11,.48,.4,1.11,.86,.75,.55,1.26,1.04,1.54,1.47s.42,.86,.42,1.29c0,.62-.24,1.17-.71,1.63s-1.05,.69-1.73,.69c-.52,0-1-.14-1.42-.42s-.82-.75-1.18-1.4Z"/>
    </g>
  </g>
</svg>