<?xml version="1.0" encoding="UTF-8"?>
<svg id="Camada_2" data-name="Camada 2" xmlns="http://www.w3.org/2000/svg" viewBox="0 0 42.78 24.2">
  <defs>
    <style>
      @import url("https://fonts.cdnfonts.com/css/century-gothic-paneuropean");
      @import url("https://fonts.googleapis.com/css2?family=Bayon");
      .cls-1, .cls-2 {
      fill: #fff;
      }

      .cls-2 {
      font-family: 'Century Gothic Paneuropean', 'Century Gothic';
      }

      .cls-2, .cls-3 {
      font-size: 12px;
      }

      .cls-4, .cls-5 {
      fill: #5b388d;
      }

      .cls-3 {
      font-family: Bayon;
      }

      .cls-6 {
      fill: none;
      letter-spacing: .2em;
      }

      .cls-7 {
      letter-spacing: .016em;
      }

      .cls-5 {
      letter-spacing: .2em;
      }
    </style>
  </defs>
  <g id="Dark_cópia" data-name="Dark cópia">
    <g id="Estilo_2" data-name="Estilo 2">
      <text class="cls-3" transform="translate(.11 10.28)">
        <tspan class="cls-5" x="0" y="0">C</tspan>
        <tspan class="cls-6" x="7.83" y="0">O</tspan>
        <tspan class="cls-5" x="15.71" y="0">SMI</tspan>
        <tspan class="cls-4" x="37.1" y="0">C</tspan>
      </text>
      <path class="cls-1"
        d="M11.94,6.09s.29-1.45-1.39-1.5-1.72,2.38-.53,3.1c0,0-.41-.51-.49-.89,0,0,1.14,1.65,2.82-.23s-.6-4.25-2.49-3.45-2.52,2.3-2.11,3.85,2.29,2.7,4.32,1.85,2.91-3.25,2.31-4.91c0,0,1.72,2.71-.8,5,0,0-1.49,1.46-4.2,.57,0,0,1.31,.98,3.25,.48,0,0-2.34,1.27-4.34-.49s-1.23-4-1.23-4c0,0-.64,1.37-.15,2.73,0,0-1.09-1.67-.11-3.62s3.43-2.52,4.87-2.26c0,0-1.36-.67-3.45,.27,0,0,2.25-1.79,4.5-.14s.79,3.87,.42,4.26c0,0,.75-.57,.89-1.31,0,0-.12,3.14-3.53,2.84,0,0,.24,.27,1.24,.45,0,0-1.98,.44-3.03-1.27s.6-3.08,.6-3.08c0,0-.34-.01-1.01,.79,0,0,1.06-1.95,2.96-1.17,0,0,1.47,.82,.68,2.14Z" />
    </g>
    <text class="cls-2" transform="translate(0 20.52)">
      <tspan x="0" y="0">GAMES</tspan>
    </text>
  </g>
</svg>