<?xml version="1.0" encoding="UTF-8"?>
<svg id="Camada_2" data-name="Camada 2" xmlns="http://www.w3.org/2000/svg" viewBox="0 0 50.14 20.75">
  <defs>
    <style>
      .cls-1 {
        fill: #fff;
      }

      .cls-2 {
        fill: #5b388d;
      }
    </style>
  </defs>
  <g id="Dark">
    <g id="Estilo_2" data-name="Estilo 2">
      <g>
        <path class="cls-2" d="M6.52,8.6c-.43,0-.83-.11-1.19-.33-.36-.22-.64-.51-.85-.88s-.31-.78-.31-1.23V2.41c.01-.45,.11-.85,.32-1.21,.2-.36,.48-.66,.84-.88s.75-.33,1.19-.33,.84,.11,1.19,.32c.35,.21,.63,.5,.84,.87s.31,.77,.31,1.22v.55s-.02,.05-.05,.05h-1.35s-.05-.02-.05-.05v-.55c0-.27-.09-.49-.26-.69s-.39-.29-.64-.29c-.29,0-.5,.1-.66,.29s-.23,.42-.23,.68v3.74c0,.29,.09,.53,.26,.72s.38,.28,.63,.28,.47-.1,.64-.31,.26-.43,.26-.69v-.56s.02-.05,.05-.05h1.36s.05,.02,.05,.05v.56c0,.45-.11,.86-.32,1.23-.21,.37-.5,.66-.85,.88s-.75,.33-1.19,.33Z"/>
        <path class="cls-2" d="M14.36,8.6c-.43,0-.82-.11-1.18-.33-.36-.22-.64-.51-.86-.88s-.33-.77-.33-1.2V2.39c.01-.45,.12-.85,.33-1.2,.21-.36,.5-.65,.86-.86s.75-.33,1.17-.33,.83,.11,1.18,.32c.35,.21,.63,.5,.85,.86s.32,.76,.32,1.2v3.8c.01,.44-.09,.84-.3,1.2-.21,.37-.5,.66-.86,.88s-.75,.33-1.18,.33Zm0-1.45c.24,0,.45-.1,.63-.3s.27-.42,.27-.67V2.39c-.01-.27-.1-.49-.26-.67s-.38-.28-.64-.28-.46,.09-.63,.27-.26,.41-.26,.68v3.8c0,.26,.09,.49,.26,.68s.39,.28,.63,.28Z"/>
        <path class="cls-2" d="M22.06,8.6c-.43,0-.82-.11-1.18-.33-.36-.22-.64-.51-.85-.88s-.32-.77-.32-1.2v-.55s.02-.06,.06-.06h1.35s.05,.02,.05,.06v.55c0,.26,.09,.49,.26,.68s.39,.28,.63,.28,.46-.1,.64-.29,.26-.42,.26-.67c0-.29-.19-.55-.57-.77-.06-.04-.14-.09-.24-.14s-.22-.12-.35-.2-.27-.15-.4-.22-.25-.14-.38-.21c-.44-.26-.76-.58-.98-.97s-.32-.83-.32-1.31c0-.45,.11-.85,.33-1.21,.22-.36,.5-.64,.86-.85S21.65,.01,22.06,.01s.82,.11,1.17,.32c.36,.21,.64,.5,.85,.86s.32,.75,.32,1.2v.98s-.02,.05-.05,.05h-1.35s-.05-.02-.05-.05v-.98c-.01-.28-.1-.51-.28-.69s-.38-.26-.63-.26-.46,.09-.63,.28-.26,.41-.26,.67,.06,.48,.17,.66,.32,.34,.61,.5c.03,.02,.1,.05,.22,.12s.24,.13,.38,.21,.26,.14,.38,.21,.18,.1,.21,.11c.4,.22,.71,.5,.95,.82s.35,.72,.35,1.2-.11,.87-.32,1.23c-.21,.36-.5,.65-.86,.86s-.75,.32-1.18,.32Z"/>
        <path class="cls-2" d="M29.05,8.48h-1.36s-.05-.02-.05-.06l.02-8.24s.02-.05,.05-.05h1.46s.06,.02,.08,.05l1.1,1.58,1.09-1.58s.05-.05,.09-.05h1.47s.05,.02,.05,.05l.02,8.24s-.02,.06-.05,.06h-1.36s-.05-.02-.05-.06V2.3s-1.27,1.83-1.27,1.83l-1.25-1.83v6.12s-.03,.06-.06,.06Z"/>
        <path class="cls-2" d="M37.9,8.48h-1.36s-.06-.02-.06-.06V.18s.03-.05,.06-.05h1.35s.05,.02,.05,.05V8.43s0,.06-.04,.06Z"/>
        <path class="cls-2" d="M43.61,8.6c-.43,0-.83-.11-1.19-.33-.36-.22-.64-.51-.85-.88s-.31-.78-.31-1.23V2.41c.01-.45,.11-.85,.32-1.21,.2-.36,.48-.66,.84-.88s.75-.33,1.19-.33,.84,.11,1.19,.32c.35,.21,.63,.5,.84,.87s.31,.77,.31,1.22v.55s-.02,.05-.05,.05h-1.35s-.05-.02-.05-.05v-.55c0-.27-.09-.49-.26-.69s-.39-.29-.64-.29c-.29,0-.5,.1-.66,.29s-.23,.42-.23,.68v3.74c0,.29,.09,.53,.26,.72s.38,.28,.63,.28,.47-.1,.64-.31,.26-.43,.26-.69v-.56s.02-.05,.05-.05h1.36s.05,.02,.05,.05v.56c0,.45-.11,.86-.32,1.23-.21,.37-.5,.66-.85,.88s-.75,.33-1.19,.33Z"/>
      </g>
      <g>
        <g>
          <path class="cls-1" d="M0,11.73v-.84H4.72v.84h-1.92v7.78h-.88v-7.78H0Z"/>
          <path class="cls-1" d="M16.44,10.88h1.72c.96,0,1.61,.04,1.95,.12,.51,.12,.93,.37,1.25,.75s.48,.86,.48,1.42c0,.47-.11,.88-.33,1.24-.22,.36-.54,.62-.95,.81s-.98,.27-1.7,.28l3.1,4h-1.07l-3.1-4h-.49v4h-.86V10.88Zm.86,.84v2.93h1.48c.58,.01,1-.04,1.28-.15,.28-.11,.49-.28,.65-.52,.15-.24,.23-.51,.23-.81s-.08-.55-.23-.79c-.16-.24-.36-.41-.62-.51-.25-.1-.68-.15-1.27-.15h-1.52Z"/>
          <path class="cls-1" d="M23.73,10.88h1.72c.96,0,1.61,.04,1.95,.12,.51,.12,.93,.37,1.25,.75s.48,.86,.48,1.42c0,.47-.11,.88-.33,1.24-.22,.36-.54,.62-.95,.81s-.98,.27-1.7,.28l3.1,4h-1.07l-3.1-4h-.49v4h-.86V10.88Zm.86,.84v2.93h1.48c.58,.01,1-.04,1.28-.15,.28-.11,.49-.28,.65-.52,.15-.24,.23-.51,.23-.81s-.08-.55-.23-.79c-.16-.24-.36-.41-.62-.51-.25-.1-.68-.15-1.27-.15h-1.52Z"/>
          <path class="cls-1" d="M30.97,10.88h4.94v.84h-4.08v2.7h4.04v.84h-4.04v3.39h4.04v.84h-4.9V10.88Z"/>
          <path class="cls-1" d="M37.4,19.5V10.88h.19l5.74,6.61v-6.61h.85v8.62h-.19l-5.69-6.53v6.53h-.89Z"/>
          <path class="cls-1" d="M45.42,11.73v-.84h4.72v.84h-1.92v7.78h-.88v-7.78h-1.92Z"/>
        </g>
        <path class="cls-2" d="M11.8,15.23s.37-1.85-1.79-1.92-2.2,3.04-.68,3.97c0,0-.52-.66-.63-1.14,0,0,1.46,2.12,3.62-.3,2.16-2.41-.77-5.45-3.2-4.42s-3.22,2.95-2.71,4.94,2.94,3.45,5.54,2.37,3.73-4.17,2.97-6.29c0,0,2.2,3.47-1.03,6.41,0,0-1.91,1.87-5.38,.72,0,0,1.67,1.25,4.17,.62,0,0-2.99,1.62-5.56-.63s-1.58-5.13-1.58-5.13c0,0-.82,1.75-.19,3.49,0,0-1.39-2.14-.14-4.64s4.39-3.23,6.23-2.9c0,0-1.74-.86-4.42,.34,0,0,2.89-2.29,5.76-.18,2.87,2.11,1.01,4.96,.54,5.46,0,0,.96-.72,1.15-1.67,0,0-.16,4.02-4.52,3.64,0,0,.3,.34,1.59,.58,0,0-2.53,.56-3.89-1.62s.76-3.94,.76-3.94c0,0-.44-.02-1.29,1.01,0,0,1.36-2.5,3.8-1.5,0,0,1.89,1.05,.88,2.74Z"/>
      </g>
    </g>
  </g>
</svg>